{
  "accessors": [
    {
      "bufferView": 2,
      "componentType": 5126,
      "count": 38,
      "max": [
        1.941182017326355,
        1.941182017326355,
        5.960000038146973
      ],
      "min": [
        -1.941182017326355,
        -1.941182017326355,
        -5.960000038146973
      ],
      "type": "VEC3"
    },
    {
      "bufferView": 2,
      "byteOffset": 456,
      "componentType": 5126,
      "count": 38,
      "max": [
        0.9121249914169312,
        0.9127811789512634,
        1.0
      ],
      "min": [
        -0.9121249914169312,
        -0.9121249914169312,
        -1.0
      ],
      "type": "VEC3"
    },
    {
      "bufferView": 1,
      "componentType": 5126,
      "count": 38,
      "max": [
        0.39412498474121094,
        0.17915499210357666
      ],
      "min": [
        0.005876999814063311,
        -0.3941110074520111
      ],
      "type": "VEC2"
    },
    {
      "bufferView": 0,
      "componentType": 5125,
      "count": 216,
      "type": "SCALAR"
    }
  ],
  "asset": {
    "extras": {
      "author": "RosieV (https://sketchfab.com/RosieV)",
      "license": "CC-BY-4.0 (http://creativecommons.org/licenses/by/4.0/)",
      "source": "https://sketchfab.com/3d-models/crystal-shard-64-e6d5486f79a74a6bbf867564ce09176b",
      "title": "Crystal Shard 64"
    },
    "generator": "Sketchfab-12.68.0",
    "version": "2.0"
  },
  "bufferViews": [
    {
      "buffer": 0,
      "byteLength": 864,
      "name": "floatBufferViews",
      "target": 34963
    },
    {
      "buffer": 0,
      "byteLength": 304,
      "byteOffset": 864,
      "byteStride": 8,
      "name": "floatBufferViews",
      "target": 34962
    },
    {
      "buffer": 0,
      "byteLength": 912,
      "byteOffset": 1168,
      "byteStride": 12,
      "name": "floatBufferViews",
      "target": 34962
    }
  ],
  "buffers": [
    {
      "byteLength": 2080,
      "uri": "scene.bin"
    }
  ],
  "extensionsRequired": [
    "KHR_materials_pbrSpecularGlossiness"
  ],
  "extensionsUsed": [
    "KHR_materials_pbrSpecularGlossiness"
  ],
  "materials": [
    {
      "doubleSided": true,
      "emissiveFactor": [
        0.2102451438847842,
        0.001704798797978951,
        0.9899636880863927
      ],
      "extensions": {
        "KHR_materials_pbrSpecularGlossiness": {
          "diffuseFactor": [
            0.003899999999999997,
            0.7842999999999999,
            0.10980000000000004,
            1.0
          ],
          "glossinessFactor": 0.46615795972870616,
          "specularFactor": [
            0.2883956035098476,
            0.001704798797978951,
            0.9899636880863927
          ]
        }
      },
      "name": "shiny_light"
    }
  ],
  "meshes": [
    {
      "name": "Object_0",
      "primitives": [
        {
          "attributes": {
            "NORMAL": 1,
            "POSITION": 0,
            "TEXCOORD_0": 2
          },
          "indices": 3,
          "material": 0,
          "mode": 4
        }
      ]
    }
  ],
  "nodes": [
    {
      "children": [
        1
      ],
      "matrix": [
        1.0,
        0.0,
        0.0,
        0.0,
        0.0,
        2.220446049250313e-16,
        -1.0,
        0.0,
        0.0,
        1.0,
        2.220446049250313e-16,
        0.0,
        0.0,
        0.0,
        0.0,
        1.0
      ],
      "name": "Sketchfab_model"
    },
    {
      "children": [
        2
      ],
      "name": "CS64 Lighting Fix.obj.cleaner.materialmerger.gles"
    },
    {
      "mesh": 0,
      "name": "Object_2"
    }
  ],
  "scene": 0,
  "scenes": [
    {
      "name": "Sketchfab_Scene",
      "nodes": [
        0
      ]
    }
  ]
}
