{
  "accessors": [
    {
      "bufferView": 2,
      "componentType": 5126,
      "count": 2783,
      "max": [
        129.34725952148438,
        9.466235496802256e-05,
        129.3471221923828
      ],
      "min": [
        -129.3473358154297,
        -693.4940795898438,
        -129.34747314453125
      ],
      "type": "VEC3"
    },
    {
      "bufferView": 2,
      "byteOffset": 33396,
      "componentType": 5126,
      "count": 2783,
      "max": [
        1.0,
        1.0,
        1.0
      ],
      "min": [
        -1.0,
        -1.0,
        -1.0
      ],
      "type": "VEC3"
    },
    {
      "bufferView": 1,
      "componentType": 5126,
      "count": 2783,
      "max": [
        0.7992143630981445,
        0.8031938672065735
      ],
      "min": [
        -6.426245313662093e-09,
        0.00948169082403183
      ],
      "type": "VEC2"
    },
    {
      "bufferView": 0,
      "componentType": 5125,
      "count": 6882,
      "type": "SCALAR"
    },
    {
      "bufferView": 2,
      "byteOffset": 66792,
      "componentType": 5126,
      "count": 2783,
      "max": [
        366.7333984375,
        175.39364624023438,
        696.3659057617188
      ],
      "min": [
        -74.72193145751953,
        -89.63025665283203,
        -24.87494659423828
      ],
      "type": "VEC3"
    },
    {
      "bufferView": 2,
      "byteOffset": 100188,
      "componentType": 5126,
      "count": 2783,
      "max": [
        0.9995911121368408,
        0.9994425773620605,
        0.9976276755332947
      ],
      "min": [
        -0.9997035264968872,
        -0.9996738433837891,
        -0.99759441614151
      ],
      "type": "VEC3"
    },
    {
      "bufferView": 1,
      "byteOffset": 22264,
      "componentType": 5126,
      "count": 2783,
      "max": [
        0.7992143630981445,
        0.8031938672065735
      ],
      "min": [
        -6.426245313662093e-09,
        0.00948169082403183
      ],
      "type": "VEC2"
    },
    {
      "bufferView": 0,
      "byteOffset": 27528,
      "componentType": 5125,
      "count": 6882,
      "type": "SCALAR"
    }
  ],
  "asset": {
    "extras": {
      "author": "Matrixxy (https://sketchfab.com/matrixxy)",
      "license": "CC-BY-4.0 (http://creativecommons.org/licenses/by/4.0/)",
      "source": "https://sketchfab.com/3d-models/low-poly-flashlight-cd1e097744ba4989a4b7b8bc9bb6929d",
      "title": "Low Poly Flashlight"
    },
    "generator": "Sketchfab-16.67.0",
    "version": "2.0"
  },
  "bufferViews": [
    {
      "buffer": 0,
      "byteLength": 55056,
      "name": "floatBufferViews",
      "target": 34963
    },
    {
      "buffer": 0,
      "byteLength": 44528,
      "byteOffset": 55056,
      "byteStride": 8,
      "name": "floatBufferViews",
      "target": 34962
    },
    {
      "buffer": 0,
      "byteLength": 133584,
      "byteOffset": 99584,
      "byteStride": 12,
      "name": "floatBufferViews",
      "target": 34962
    }
  ],
  "buffers": [
    {
      "byteLength": 233168,
      "uri": "scene.bin"
    }
  ],
  "images": [
    {
      "uri": "textures/BaseColor_baseColor.png"
    }
  ],
  "materials": [
    {
      "doubleSided": true,
      "name": "BaseColor",
      "pbrMetallicRoughness": {
        "baseColorTexture": {
          "index": 0
        },
        "metallicFactor": 0.0,
        "roughnessFactor": 0.8308566273725787
      }
    }
  ],
  "meshes": [
    {
      "name": "Flashlight_BaseColor_0",
      "primitives": [
        {
          "attributes": {
            "NORMAL": 1,
            "POSITION": 0,
            "TEXCOORD_0": 2
          },
          "indices": 3,
          "material": 0,
          "mode": 4
        }
      ]
    },
    {
      "name": "Flashlight.001_BaseColor_0",
      "primitives": [
        {
          "attributes": {
            "NORMAL": 5,
            "POSITION": 4,
            "TEXCOORD_0": 6
          },
          "indices": 7,
          "material": 0,
          "mode": 4
        }
      ]
    }
  ],
  "nodes": [
    {
      "children": [
        1
      ],
      "matrix": [
        1.0,
        0.0,
        0.0,
        0.0,
        0.0,
        2.220446049250313e-16,
        -1.0,
        0.0,
        0.0,
        1.0,
        2.220446049250313e-16,
        0.0,
        0.0,
        0.0,
        0.0,
        1.0
      ],
      "name": "Sketchfab_model"
    },
    {
      "children": [
        2
      ],
      "matrix": [
        0.009999999776482582,
        0.0,
        0.0,
        0.0,
        0.0,
        0.0,
        0.009999999776482582,
        0.0,
        0.0,
        -0.009999999776482582,
        0.0,
        0.0,
        0.0,
        0.0,
        0.0,
        1.0
      ],
      "name": "712e368ae2b047a28adbf8a451b032de.fbx"
    },
    {
      "children": [
        3,
        5
      ],
      "name": "RootNode"
    },
    {
      "children": [
        4
      ],
      "matrix": [
        1.0,
        0.0,
        0.0,
        0.0,
        0.0,
        1.0,
        0.0,
        0.0,
        0.0,
        0.0,
        1.0,
        0.0,
        -280.510986328125,
        693.500732421875,
        4.172325134277344e-05,
        1.0
      ],
      "name": "Flashlight"
    },
    {
      "mesh": 0,
      "name": "Flashlight_BaseColor_0"
    },
    {
      "children": [
        6
      ],
      "matrix": [
        1.0,
        0.0,
        0.0,
        0.0,
        0.0,
        1.0,
        0.0,
        0.0,
        0.0,
        0.0,
        1.0,
        0.0,
        -133.69544982910156,
        90.0,
        -396.9303894042969,
        1.0
      ],
      "name": "Flashlight.001"
    },
    {
      "mesh": 1,
      "name": "Flashlight.001_BaseColor_0"
    }
  ],
  "samplers": [
    {
      "magFilter": 9729,
      "minFilter": 9987,
      "wrapS": 10497,
      "wrapT": 10497
    }
  ],
  "scene": 0,
  "scenes": [
    {
      "name": "Sketchfab_Scene",
      "nodes": [
        0
      ]
    }
  ],
  "textures": [
    {
      "sampler": 0,
      "source": 0
    }
  ]
}
